<?xml version="1.0" encoding="utf-8"?>
<!-- Generator: Adobe Illustrator 18.1.1, SVG Export Plug-In . SVG Version: 6.00 Build 0)  -->
<svg version="1.1" id="Layer_1" xmlns="http://www.w3.org/2000/svg" xmlns:xlink="http://www.w3.org/1999/xlink" x="0px" y="0px"
	 viewBox="257 99.9 283.5 292.8" enable-background="new 257 99.9 283.5 292.8" xml:space="preserve">
<g>
	<path d="M323.5,392.7h-54.8c-6.4,0-11.8-5.4-11.8-11.8V208.6c0-6.4,5.4-11.8,11.8-11.8H323c6.4,0,11.8,5.4,11.8,11.8v172.8
		C335.3,387.8,329.9,392.7,323.5,392.7z M269.2,380.9H323V208.6h-53.9C269.2,208.6,269.2,380.9,269.2,380.9z"/>
</g>
<g>
	<path d="M426.4,392.7h-54.8c-6.4,0-11.8-5.4-11.8-11.8V258c0-6.4,5.4-11.8,11.8-11.8h54.3c6.4,0,11.8,5.4,11.8,11.8v122.9
		C438.1,387.8,432.7,392.7,426.4,392.7z M372,380.9h53.9V258.5H372V380.9z"/>
</g>
<g>
	<path d="M529.2,392.7h-54.8c-6.4,0-11.8-5.4-11.8-11.8V111.6c0-6.4,5.4-11.8,11.8-11.8h54.3c6.4,0,11.8,5.4,11.8,11.8v269.3
		C540.9,387.8,535.5,392.7,529.2,392.7z M474.8,380.9h53.9V112.1h-53.9V380.9z"/>
</g>
</svg>
