<?xml version="1.0" encoding="utf-8"?>
<!-- Generator: Adobe Illustrator 18.1.1, SVG Export Plug-In . SVG Version: 6.00 Build 0)  -->
<svg version="1.1" id="Layer_1" xmlns="http://www.w3.org/2000/svg" xmlns:xlink="http://www.w3.org/1999/xlink" x="0px" y="0px"
	 viewBox="356.5 99.7 592.8 612.2" enable-background="new 356.5 99.7 592.8 612.2" xml:space="preserve">
<g>
	<path fill="#BEBEBE" d="M495.7,711.9H381.2c-13.4,0-24.7-11.3-24.7-24.7V327.1c0-13.4,11.3-24.7,24.7-24.7h113.5
		c13.4,0,24.7,11.3,24.7,24.7v361.2C520.4,701.7,509.1,711.9,495.7,711.9z M382.2,687.2h112.5V327.1H382
		C382.2,327.1,382.2,687.2,382.2,687.2z"/>
</g>
<g>
	<path fill="#BEBEBE" d="M710.8,711.9H596.3c-13.4,0-24.7-11.3-24.7-24.7V430.4c0-13.4,11.3-24.7,24.7-24.7h113.5
		c13.4,0,24.7,11.3,24.7,24.7v256.9C735.2,701.7,724,711.9,710.8,711.9z M597.1,687.2h112.7V431.4H597.1V687.2z"/>
</g>
<g>
	<path fill="#BEBEBE" d="M925.7,711.9H811.1c-13.4,0-24.7-11.3-24.7-24.7V124.4c0-13.4,11.3-24.7,24.7-24.7h113.5
		c13.4,0,24.7,11.3,24.7,24.7v562.9C950.1,701.7,938.8,711.9,925.7,711.9z M812,687.2h112.7V125.4H812L812,687.2L812,687.2z"/>
</g>
</svg>
