<?xml version="1.0" encoding="utf-8"?>
<!-- Generator: Adobe Illustrator 18.1.1, SVG Export Plug-In . SVG Version: 6.00 Build 0)  -->
<svg version="1.1" id="Layer_1" xmlns="http://www.w3.org/2000/svg" xmlns:xlink="http://www.w3.org/1999/xlink" x="0px" y="0px"
	 viewBox="260.2 25.8 286.3 437.1" enable-background="new 260.2 25.8 286.3 437.1" xml:space="preserve">
<g>
	<g>
		<path d="M359.7,462.8c-30.6,0-55.5-15.3-66.9-34.4c-7.6-11.5-15.3-30.6-15.3-47.8c0-7.6,5.7-11.5,13.4-11.5s11.5,5.7,11.5,13.4
			c0,9.6,3.8,24.9,9.6,34.4c9.6,13.4,32.5,26.8,61.2,21c30.6-5.7,40.2-28.7,55.5-68.9c5.7-15.3,13.4-34.4,23-51.6
			c7.6-15.3,17.2-28.7,26.8-42.1c13.4-19.1,26.8-38.2,34.4-59.3c15.3-44,7.7-86.1-17.2-118.6c-26.8-32.5-68.9-47.8-116.7-44
			c-44,3.8-68.8,21-86.1,57.4c-3.8,5.7-7.6,15.3-7.6,22.9s-5.7,11.5-13.4,11.5s-11.5-5.7-11.5-11.5c0-13.4,7.6-28.7,9.6-34.4
			c21-44,53.5-65,109-72.7c55.5-5.7,107.1,13.4,137.7,51.6s38.2,89.9,21,141.5c-7.6,22.9-23,44-36.3,65
			c-9.6,13.4-19.1,26.8-26.8,40.2c-9.6,15.3-15.3,32.5-21,47.8c-15.3,38.2-28.7,74.6-74.6,84.1C373,460.9,365.4,462.8,359.7,462.8z"
			/>
	</g>
</g>
<g>
	<path d="M424.7,242.9c-1.9-24.9,13.4-30.6,15.3-53.6c1.9-24.9-11.5-51.6-28.7-57.4c-32.5-11.5-63.1,9.6-63.1,38.2
		c0,36.3,49.7,44,51.6,82.2c0,32.5-21,93.7-65,82.2c-13.4-3.8-17.2-15.3-17.2-24.9c-1.9-32.5,34.4-40.2,32.5-68.9
		c0-26.8-17.2-19.1-28.7-45.9c-15.3-86.1,88-114.8,126.2-59.3C468.7,162.6,461,229.5,424.7,242.9z"/>
</g>
<text transform="matrix(1 0 0 1 220.048 776.4705)" font-family="'HelveticaNeue-Bold'" font-size="95.625">Created by Kamaksh G</text>
<text transform="matrix(1 0 0 1 220.048 872.0955)" font-family="'HelveticaNeue-Bold'" font-size="95.625">from the Noun Project</text>
</svg>
