<?xml version="1.0" encoding="utf-8"?>
<!-- Generator: Adobe Illustrator 18.1.1, SVG Export Plug-In . SVG Version: 6.00 Build 0)  -->
<svg version="1.1" id="Layer_1" xmlns="http://www.w3.org/2000/svg" xmlns:xlink="http://www.w3.org/1999/xlink" x="0px" y="0px"
	 viewBox="456.1 25.5 400.9 612.1" enable-background="new 456.1 25.5 400.9 612.1" xml:space="preserve">
<g>
	<g>
		<path fill="#BEBEBE" d="M595.1,637.7c-42.8,0-77.7-21.4-93.7-48.2c-10.6-16.1-21.4-42.8-21.4-66.9c0-10.6,8-16.1,18.8-16.1
			s16.1,8,16.1,18.8c0,13.4,5.3,34.9,13.4,48.2c13.4,18.8,45.5,37.5,85.7,29.4c42.8-8,56.3-40.2,77.7-96.5
			c8-21.4,18.8-48.2,32.2-72.2c10.6-21.4,24.1-40.2,37.5-58.9c18.8-26.7,37.5-53.5,48.2-83c21.4-61.6,10.8-120.6-24.1-166.1
			C748,80.5,689,59.1,622.1,64.4c-61.6,5.3-96.3,29.4-120.6,80.4c-5.3,8-10.6,21.4-10.6,32.1c0,10.6-8,16.1-18.8,16.1
			c-10.8,0-16.1-8-16.1-16.1c0-18.8,10.6-40.2,13.4-48.2c29.4-61.6,74.9-91,152.6-101.8c77.7-8,150,18.8,192.8,72.2
			c42.8,53.5,53.5,125.9,29.4,198.1c-10.6,32.1-32.2,61.6-50.8,91c-13.4,18.8-26.7,37.5-37.5,56.3c-13.4,21.4-21.4,45.5-29.4,66.9
			C705.1,565,686.4,616,622.1,629.3C613.7,635,603.1,637.7,595.1,637.7z"/>
	</g>
</g>
<g>
	<path fill="#BEBEBE" d="M686.1,329.8c-2.7-34.9,18.8-42.8,21.4-75c2.7-34.9-16.1-72.2-40.2-80.4c-45.5-16.1-88.3,13.4-88.3,53.5
		c0,50.8,69.6,61.6,72.2,115.1c0,45.5-29.4,131.2-91,115.1c-18.8-5.3-24.1-21.4-24.1-34.9c-2.7-45.5,48.2-56.3,45.5-96.5
		c0-37.5-24.1-26.7-40.2-64.3c-21.4-120.6,123.2-160.7,176.7-83C747.7,217.3,736.9,311,686.1,329.8z"/>
</g>
<text transform="matrix(1 0 0 1 399.5528 1076.8419)" fill="#BEBEBE" font-family="'HelveticaNeue-Bold'" font-size="133.8881">Created by Kamaksh G</text>
<text transform="matrix(1 0 0 1 399.5528 1210.7305)" fill="#BEBEBE" font-family="'HelveticaNeue-Bold'" font-size="133.8881">from the Noun Project</text>
</svg>
