<?xml version="1.0" encoding="utf-8"?>
<!-- Generator: Adobe Illustrator 18.1.1, SVG Export Plug-In . SVG Version: 6.00 Build 0)  -->
<svg version="1.1" id="Layer_1" xmlns="http://www.w3.org/2000/svg" xmlns:xlink="http://www.w3.org/1999/xlink" x="0px" y="0px"
	 viewBox="156.1 129.7 479.8 230.3" enable-background="new 156.1 129.7 479.8 230.3" xml:space="preserve">
<g>
	<path d="M175.3,360c-10.6,0-19.2-8.6-19.2-19.2V148.8c0-10.6,8.6-19.2,19.2-19.2h441.4c10.6,0,19.2,8.6,19.2,19.2v191.9
		c0,10.5-8.6,19.2-19.2,19.2H175.3z M626.3,148.8c0-5.3-4.3-9.6-9.6-9.6H175.3c-5.3,0-9.6,4.3-9.6,9.6v191.9c0,5.3,4.3,9.6,9.6,9.6
		h441.4c5.3,0,9.6-4.3,9.6-9.6V148.8z M184.9,196.8c0-5.3,4.3-9.6,9.6-9.6h9.6c5.3,0,9.6,4.3,9.6,9.6v9.6c0,5.3-4.3,9.6-9.6,9.6
		h-9.6c-5.3,0-9.6-4.3-9.6-9.6C184.9,206.4,184.9,196.8,184.9,196.8z M184.9,235.2c0-5.3,4.3-9.6,9.6-9.6h28.8
		c5.3,0,9.6,4.3,9.6,9.6v9.6c0,5.3-4.3,9.6-9.6,9.6h-28.8c-5.3,0-9.6-4.3-9.6-9.6C184.9,244.8,184.9,235.2,184.9,235.2z
		 M184.9,273.6c0-5.3,4.3-9.6,9.6-9.6h9.6c5.3,0,9.6,4.3,9.6,9.6v9.6c0,5.3-4.3,9.6-9.6,9.6h-9.6c-5.3,0-9.6-4.3-9.6-9.6
		C184.9,283.2,184.9,273.6,184.9,273.6z M184.9,312c0-5.3,4.3-9.6,9.6-9.6h28.8c5.3,0,9.6,4.3,9.6,9.6v9.6c0,5.3-4.3,9.6-9.6,9.6
		h-28.8c-5.3,0-9.6-4.3-9.6-9.6C184.9,321.6,184.9,312,184.9,312z M194.5,206.4h9.6v-9.6h-9.6V206.4z M194.5,244.8h28.8v-9.6h-28.8
		V244.8z M194.5,283.2h9.6v-9.6h-9.6V283.2z M194.5,321.6h28.8V312h-28.8V321.6z M223.3,196.8c0-5.3,4.3-9.6,9.6-9.6h9.6
		c5.3,0,9.6,4.3,9.6,9.6v9.6c0,5.3-4.3,9.6-9.6,9.6h-9.6c-5.3,0-9.6-4.3-9.6-9.6V196.8z M223.3,273.6c0-5.3,4.3-9.6,9.6-9.6h9.6
		c5.3,0,9.6,4.3,9.6,9.6v9.6c0,5.3-4.3,9.6-9.6,9.6h-9.6c-5.3,0-9.6-4.3-9.6-9.6V273.6z M232.9,206.4h9.6v-9.6h-9.6V206.4z
		 M232.9,283.2h9.6v-9.6h-9.6V283.2z M242.5,235.2c0-5.3,4.3-9.6,9.6-9.6h9.6c5.3,0,9.6,4.3,9.6,9.6v9.6c0,5.3-4.3,9.6-9.6,9.6h-9.6
		c-5.3,0-9.6-4.3-9.6-9.6V235.2z M242.5,312c0-5.3,4.3-9.6,9.6-9.6h163.1c5.3,0,9.6,4.3,9.6,9.6v9.6c0,5.3-4.3,9.6-9.6,9.6H252.1
		c-5.3,0-9.6-4.3-9.6-9.6C242.5,321.6,242.5,312,242.5,312z M252.1,244.8h9.6v-9.6h-9.6V244.8z M252.1,321.6h163.1V312H252.1V321.6z
		 M261.7,196.8c0-5.3,4.3-9.6,9.6-9.6h9.6c5.3,0,9.6,4.3,9.6,9.6v9.6c0,5.3-4.3,9.6-9.6,9.6h-9.6c-5.3,0-9.6-4.3-9.6-9.6V196.8z
		 M261.7,273.6c0-5.3,4.3-9.6,9.6-9.6h9.6c5.3,0,9.6,4.3,9.6,9.6v9.6c0,5.3-4.3,9.6-9.6,9.6h-9.6c-5.3,0-9.6-4.3-9.6-9.6V273.6z
		 M271.2,206.4h9.6v-9.6h-9.6V206.4z M271.2,283.2h9.6v-9.6h-9.6V283.2z M280.8,235.2c0-5.3,4.3-9.6,9.6-9.6h9.6
		c5.3,0,9.6,4.3,9.6,9.6v9.6c0,5.3-4.3,9.6-9.6,9.6h-9.6c-5.3,0-9.6-4.3-9.6-9.6L280.8,235.2L280.8,235.2z M290.4,244.8h9.6v-9.6
		h-9.6V244.8z M300,196.8c0-5.3,4.3-9.6,9.6-9.6h9.6c5.3,0,9.6,4.3,9.6,9.6v9.6c0,5.3-4.3,9.6-9.6,9.6h-9.6c-5.3,0-9.6-4.3-9.6-9.6
		C300,206.4,300,196.8,300,196.8z M300,273.6c0-5.3,4.3-9.6,9.6-9.6h9.6c5.3,0,9.6,4.3,9.6,9.6v9.6c0,5.3-4.3,9.6-9.6,9.6h-9.6
		c-5.3,0-9.6-4.3-9.6-9.6C300,283.2,300,273.6,300,273.6z M309.6,206.4h9.6v-9.6h-9.6V206.4z M309.6,283.2h9.6v-9.6h-9.6V283.2z
		 M319.2,235.2c0-5.3,4.3-9.6,9.6-9.6h9.6c5.3,0,9.6,4.3,9.6,9.6v9.6c0,5.3-4.3,9.6-9.6,9.6h-9.6c-5.3,0-9.6-4.3-9.6-9.6V235.2z
		 M328.8,244.8h9.6v-9.6h-9.6V244.8z M338.4,196.8c0-5.3,4.3-9.6,9.6-9.6h9.6c5.3,0,9.6,4.3,9.6,9.6v9.6c0,5.3-4.3,9.6-9.6,9.6H348
		c-5.3,0-9.6-4.3-9.6-9.6V196.8z M338.4,273.6c0-5.3,4.3-9.6,9.6-9.6h9.6c5.3,0,9.6,4.3,9.6,9.6v9.6c0,5.3-4.3,9.6-9.6,9.6H348
		c-5.3,0-9.6-4.3-9.6-9.6V273.6z M348,206.4h9.6v-9.6H348V206.4z M348,283.2h9.6v-9.6H348V283.2z M357.6,235.2
		c0-5.3,4.3-9.6,9.6-9.6h9.6c5.3,0,9.6,4.3,9.6,9.6v9.6c0,5.3-4.3,9.6-9.6,9.6h-9.6c-5.3,0-9.6-4.3-9.6-9.6V235.2z M367.2,244.8h9.6
		v-9.6h-9.6V244.8z M376.8,196.8c0-5.3,4.3-9.6,9.6-9.6h9.6c5.3,0,9.6,4.3,9.6,9.6v9.6c0,5.3-4.3,9.6-9.6,9.6h-9.6
		c-5.3,0-9.6-4.3-9.6-9.6V196.8z M376.8,273.6c0-5.3,4.3-9.6,9.6-9.6h9.6c5.3,0,9.6,4.3,9.6,9.6v9.6c0,5.3-4.3,9.6-9.6,9.6h-9.6
		c-5.3,0-9.6-4.3-9.6-9.6V273.6z M386.4,206.4h9.6v-9.6h-9.6V206.4z M386.4,283.2h9.6v-9.6h-9.6V283.2z M396,235.2
		c0-5.3,4.3-9.6,9.6-9.6h9.6c5.3,0,9.6,4.3,9.6,9.6v9.6c0,5.3-4.3,9.6-9.6,9.6h-9.6c-5.3,0-9.6-4.3-9.6-9.6V235.2z M405.6,244.8h9.6
		v-9.6h-9.6V244.8z M415.2,196.8c0-5.3,4.3-9.6,9.6-9.6h9.6c5.3,0,9.6,4.3,9.6,9.6v9.6c0,5.3-4.3,9.6-9.6,9.6h-9.6
		c-5.3,0-9.6-4.3-9.6-9.6V196.8z M415.2,273.6c0-5.3,4.3-9.6,9.6-9.6h9.6c5.3,0,9.6,4.3,9.6,9.6v9.6c0,5.3-4.3,9.6-9.6,9.6h-9.6
		c-5.3,0-9.6-4.3-9.6-9.6V273.6z M424.8,206.4h9.6v-9.6h-9.6V206.4z M424.8,283.2h9.6v-9.6h-9.6V283.2z M453.6,254.4H444
		c-5.3,0-9.6-4.3-9.6-9.6v-9.6c0-5.3,4.3-9.6,9.6-9.6h28.8c5.3,0,9.6,4.3,9.6,9.6v48c0,5.3-4.3,9.6-9.6,9.6h-9.6
		c-5.3,0-9.6-4.3-9.6-9.6V254.4L453.6,254.4z M434.4,312c0-5.3,4.3-9.6,9.6-9.6h28.8c5.3,0,9.6,4.3,9.6,9.6v9.6
		c0,5.3-4.3,9.6-9.6,9.6H444c-5.3,0-9.6-4.3-9.6-9.6L434.4,312L434.4,312z M472.8,235.2H444v9.6h19.2v38.4h9.6V235.2z M444,321.6
		h28.8V312H444L444,321.6L444,321.6z M453.6,196.8c0-5.3,4.3-9.6,9.6-9.6h9.6c5.3,0,9.6,4.3,9.6,9.6v9.6c0,5.3-4.3,9.6-9.6,9.6h-9.6
		c-5.3,0-9.6-4.3-9.6-9.6L453.6,196.8L453.6,196.8z M463.2,206.4h9.6v-9.6h-9.6V206.4z M501.6,196.8c0-5.3,4.3-9.6,9.6-9.6h9.6
		c5.3,0,9.6,4.3,9.6,9.6v9.6c0,5.3-4.3,9.6-9.6,9.6h-9.6c-5.3,0-9.6-4.3-9.6-9.6V196.8z M501.6,312c0-5.3,4.3-9.6,9.6-9.6h9.6
		c5.3,0,9.6,4.3,9.6,9.6v9.6c0,5.3-4.3,9.6-9.6,9.6h-9.6c-5.3,0-9.6-4.3-9.6-9.6V312z M511.2,206.4h9.6v-9.6h-9.6V206.4z
		 M511.2,321.6h9.6V312h-9.6V321.6z M535.1,158.4c2.9,0,4.8,1.9,4.8,4.8c0,2.9-1.9,4.8-4.8,4.8c-2.9,0-4.8-1.9-4.8-4.8
		C530.3,160.4,532.3,158.4,535.1,158.4z M539.9,196.8c0-5.3,4.3-9.6,9.6-9.6h9.6c5.3,0,9.6,4.3,9.6,9.6v9.6c0,5.3-4.3,9.6-9.6,9.6
		h-9.6c-5.3,0-9.6-4.3-9.6-9.6V196.8z M539.9,273.6c0-5.3,4.3-9.6,9.6-9.6h9.6c5.3,0,9.6,4.3,9.6,9.6v9.6c0,5.3-4.3,9.6-9.6,9.6
		h-9.6c-5.3,0-9.6-4.3-9.6-9.6V273.6z M539.9,312c0-5.3,4.3-9.6,9.6-9.6h9.6c5.3,0,9.6,4.3,9.6,9.6v9.6c0,5.3-4.3,9.6-9.6,9.6h-9.6
		c-5.3,0-9.6-4.3-9.6-9.6V312z M554.3,158.4c2.9,0,4.8,1.9,4.8,4.8c0,2.9-1.9,4.8-4.8,4.8c-2.9,0-4.8-1.9-4.8-4.8
		C549.5,160.4,551.5,158.4,554.3,158.4z M549.5,206.4h9.6v-9.6h-9.6V206.4z M549.5,283.2h9.6v-9.6h-9.6V283.2z M549.5,321.6h9.6V312
		h-9.6V321.6z M573.5,158.4c2.9,0,4.8,1.9,4.8,4.8c0,2.9-1.9,4.8-4.8,4.8c-2.9,0-4.8-1.9-4.8-4.8
		C568.7,160.4,570.6,158.4,573.5,158.4z M578.3,196.8c0-5.3,4.3-9.6,9.6-9.6h9.6c5.3,0,9.6,4.3,9.6,9.6v9.6c0,5.3-4.3,9.6-9.6,9.6
		h-9.6c-5.3,0-9.6-4.3-9.6-9.6V196.8z M578.3,312c0-5.3,4.3-9.6,9.6-9.6h9.6c5.3,0,9.6,4.3,9.6,9.6v9.6c0,5.3-4.3,9.6-9.6,9.6h-9.6
		c-5.3,0-9.6-4.3-9.6-9.6V312z M587.9,206.4h9.6v-9.6h-9.6V206.4z M587.9,321.6h9.6V312h-9.6V321.6z"/>
</g>
</svg>
