<?xml version="1.0" encoding="utf-8"?>
<!-- Generator: Adobe Illustrator 18.1.1, SVG Export Plug-In . SVG Version: 6.00 Build 0)  -->
<svg version="1.1" id="Layer_1" xmlns="http://www.w3.org/2000/svg" xmlns:xlink="http://www.w3.org/1999/xlink" x="0px" y="0px"
	 viewBox="156.1 245.5 792 380.3" enable-background="new 156.1 245.5 792 380.3" xml:space="preserve">
<g>
	<path fill="#BEBEBE" d="M187.8,625.8c-17.5,0-31.7-14.2-31.7-31.7V277.2c0-17.5,14.2-31.7,31.7-31.7h728.6
		c17.5,0,31.7,14.2,31.7,31.7v316.8c0,17.3-14.2,31.7-31.7,31.7H187.8V625.8z M932.3,277.2c0-8.7-7.1-15.8-15.8-15.8H187.8
		c-8.7,0-15.8,7.1-15.8,15.8v316.8c0,8.7,7.1,15.8,15.8,15.8h728.6c8.7,0,15.8-7.1,15.8-15.8V277.2z M203.6,356.4
		c0-8.7,7.1-15.8,15.8-15.8h15.8c8.7,0,15.8,7.1,15.8,15.8v15.8c0,8.7-7.1,15.8-15.8,15.8h-15.8c-8.7,0-15.8-7.1-15.8-15.8
		C203.6,372.2,203.6,356.4,203.6,356.4z M203.6,419.8c0-8.7,7.1-15.8,15.8-15.8H267c8.7,0,15.8,7.1,15.8,15.8v15.8
		c0,8.7-7.1,15.8-15.8,15.8h-47.5c-8.7,0-15.8-7.1-15.8-15.8V419.8z M203.6,483.2c0-8.7,7.1-15.8,15.8-15.8h15.8
		c8.7,0,15.8,7.1,15.8,15.8V499c0,8.7-7.1,15.8-15.8,15.8h-15.8c-8.7,0-15.8-7.1-15.8-15.8V483.2z M203.6,546.5
		c0-8.7,7.1-15.8,15.8-15.8H267c8.7,0,15.8,7.1,15.8,15.8v15.8c0,8.7-7.1,15.8-15.8,15.8h-47.5c-8.7,0-15.8-7.1-15.8-15.8V546.5z
		 M219.5,372.2h15.8v-15.8h-15.8V372.2z M219.5,435.6H267v-15.8h-47.5V435.6z M219.5,499h15.8v-15.8h-15.8V499z M219.5,562.4H267
		v-15.8h-47.5V562.4z M267,356.4c0-8.7,7.1-15.8,15.8-15.8h15.8c8.7,0,15.8,7.1,15.8,15.8v15.8c0,8.7-7.1,15.8-15.8,15.8h-15.8
		c-8.7,0-15.8-7.1-15.8-15.8V356.4z M267,483.2c0-8.7,7.1-15.8,15.8-15.8h15.8c8.7,0,15.8,7.1,15.8,15.8V499
		c0,8.7-7.1,15.8-15.8,15.8h-15.8c-8.7,0-15.8-7.1-15.8-15.8V483.2z M282.9,372.2h15.8v-15.8h-15.8V372.2z M282.9,499h15.8v-15.8
		h-15.8V499z M298.7,419.8c0-8.7,7.1-15.8,15.8-15.8h15.8c8.7,0,15.8,7.1,15.8,15.8v15.8c0,8.7-7.1,15.8-15.8,15.8h-15.8
		c-8.7,0-15.8-7.1-15.8-15.8V419.8z M298.7,546.5c0-8.7,7.1-15.8,15.8-15.8h269.2c8.7,0,15.8,7.1,15.8,15.8v15.8
		c0,8.7-7.1,15.8-15.8,15.8H314.6c-8.7,0-15.8-7.1-15.8-15.8V546.5z M314.6,435.6h15.8v-15.8h-15.8V435.6z M314.6,562.4h269.2v-15.8
		H314.6V562.4z M330.4,356.4c0-8.7,7.1-15.8,15.8-15.8h15.8c8.7,0,15.8,7.1,15.8,15.8v15.8c0,8.7-7.1,15.8-15.8,15.8h-15.8
		c-8.7,0-15.8-7.1-15.8-15.8V356.4z M330.4,483.2c0-8.7,7.1-15.8,15.8-15.8h15.8c8.7,0,15.8,7.1,15.8,15.8V499
		c0,8.7-7.1,15.8-15.8,15.8h-15.8c-8.7,0-15.8-7.1-15.8-15.8V483.2z M346.1,372.2h15.8v-15.8h-15.8V372.2z M346.1,499h15.8v-15.8
		h-15.8V499z M361.9,419.8c0-8.7,7.1-15.8,15.8-15.8h15.8c8.7,0,15.8,7.1,15.8,15.8v15.8c0,8.7-7.1,15.8-15.8,15.8h-15.8
		c-8.7,0-15.8-7.1-15.8-15.8V419.8L361.9,419.8z M377.8,435.6h15.8v-15.8h-15.8V435.6z M393.6,356.4c0-8.7,7.1-15.8,15.8-15.8h15.8
		c8.7,0,15.8,7.1,15.8,15.8v15.8c0,8.7-7.1,15.8-15.8,15.8h-15.8c-8.7,0-15.8-7.1-15.8-15.8C393.6,372.2,393.6,356.4,393.6,356.4z
		 M393.6,483.2c0-8.7,7.1-15.8,15.8-15.8h15.8c8.7,0,15.8,7.1,15.8,15.8V499c0,8.7-7.1,15.8-15.8,15.8h-15.8
		c-8.7,0-15.8-7.1-15.8-15.8V483.2z M409.5,372.2h15.8v-15.8h-15.8V372.2z M409.5,499h15.8v-15.8h-15.8V499z M425.3,419.8
		c0-8.7,7.1-15.8,15.8-15.8H457c8.7,0,15.8,7.1,15.8,15.8v15.8c0,8.7-7.1,15.8-15.8,15.8h-15.8c-8.7,0-15.8-7.1-15.8-15.8V419.8z
		 M441.2,435.6H457v-15.8h-15.8V435.6z M457,356.4c0-8.7,7.1-15.8,15.8-15.8h15.8c8.7,0,15.8,7.1,15.8,15.8v15.8
		c0,8.7-7.1,15.8-15.8,15.8h-15.8c-8.7,0-15.8-7.1-15.8-15.8V356.4z M457,483.2c0-8.7,7.1-15.8,15.8-15.8h15.8
		c8.7,0,15.8,7.1,15.8,15.8V499c0,8.7-7.1,15.8-15.8,15.8h-15.8c-8.7,0-15.8-7.1-15.8-15.8V483.2z M472.9,372.2h15.8v-15.8h-15.8
		V372.2z M472.9,499h15.8v-15.8h-15.8V499z M488.7,419.8c0-8.7,7.1-15.8,15.8-15.8h15.8c8.7,0,15.8,7.1,15.8,15.8v15.8
		c0,8.7-7.1,15.8-15.8,15.8h-15.8c-8.7,0-15.8-7.1-15.8-15.8V419.8z M504.6,435.6h15.8v-15.8h-15.8V435.6z M520.4,356.4
		c0-8.7,7.1-15.8,15.8-15.8h15.8c8.7,0,15.8,7.1,15.8,15.8v15.8c0,8.7-7.1,15.8-15.8,15.8h-15.8c-8.7,0-15.8-7.1-15.8-15.8V356.4z
		 M520.4,483.2c0-8.7,7.1-15.8,15.8-15.8h15.8c8.7,0,15.8,7.1,15.8,15.8V499c0,8.7-7.1,15.8-15.8,15.8h-15.8
		c-8.7,0-15.8-7.1-15.8-15.8V483.2z M536.3,372.2h15.8v-15.8h-15.8V372.2z M536.3,499h15.8v-15.8h-15.8V499z M552.1,419.8
		c0-8.7,7.1-15.8,15.8-15.8h15.8c8.7,0,15.8,7.1,15.8,15.8v15.8c0,8.7-7.1,15.8-15.8,15.8h-15.8c-8.7,0-15.8-7.1-15.8-15.8V419.8z
		 M567.9,435.6h15.8v-15.8h-15.8V435.6z M583.8,356.4c0-8.7,7.1-15.8,15.8-15.8h15.8c8.7,0,15.8,7.1,15.8,15.8v15.8
		c0,8.7-7.1,15.8-15.8,15.8h-15.8c-8.7,0-15.8-7.1-15.8-15.8V356.4z M583.8,483.2c0-8.7,7.1-15.8,15.8-15.8h15.8
		c8.7,0,15.8,7.1,15.8,15.8V499c0,8.7-7.1,15.8-15.8,15.8h-15.8c-8.7,0-15.8-7.1-15.8-15.8V483.2z M599.6,372.2h15.8v-15.8h-15.8
		V372.2z M599.6,499h15.8v-15.8h-15.8V499z M647.2,451.5h-15.8c-8.7,0-15.8-7.1-15.8-15.8v-15.8c0-8.7,7.1-15.8,15.8-15.8h47.5
		c8.7,0,15.8,7.1,15.8,15.8V499c0,8.7-7.1,15.8-15.8,15.8H663c-8.7,0-15.8-7.1-15.8-15.8L647.2,451.5L647.2,451.5z M615.5,546.5
		c0-8.7,7.1-15.8,15.8-15.8h47.5c8.7,0,15.8,7.1,15.8,15.8v15.8c0,8.7-7.1,15.8-15.8,15.8h-47.5c-8.7,0-15.8-7.1-15.8-15.8V546.5
		L615.5,546.5z M678.9,419.8h-47.5v15.8H663V499h15.8L678.9,419.8L678.9,419.8z M631.3,562.4h47.5v-15.8h-47.5V562.4L631.3,562.4z
		 M647.2,356.4c0-8.7,7.1-15.8,15.8-15.8h15.8c8.7,0,15.8,7.1,15.8,15.8v15.8c0,8.7-7.1,15.8-15.8,15.8H663
		c-8.7,0-15.8-7.1-15.8-15.8V356.4L647.2,356.4z M663,372.2h15.8v-15.8H663V372.2z M726.4,356.4c0-8.7,7.1-15.8,15.8-15.8h15.8
		c8.7,0,15.8,7.1,15.8,15.8v15.8c0,8.7-7.1,15.8-15.8,15.8h-15.8c-8.7,0-15.8-7.1-15.8-15.8L726.4,356.4L726.4,356.4z M726.4,546.5
		c0-8.7,7.1-15.8,15.8-15.8h15.8c8.7,0,15.8,7.1,15.8,15.8v15.8c0,8.7-7.1,15.8-15.8,15.8h-15.8c-8.7,0-15.8-7.1-15.8-15.8
		L726.4,546.5L726.4,546.5z M742.3,372.2h15.8v-15.8h-15.8L742.3,372.2L742.3,372.2z M742.3,562.4h15.8v-15.8h-15.8L742.3,562.4
		L742.3,562.4z M781.7,293c4.8,0,7.9,3.1,7.9,7.9c0,4.8-3.1,7.9-7.9,7.9c-4.8,0-7.9-3.1-7.9-7.9C773.8,296.3,777.1,293,781.7,293z
		 M789.6,356.4c0-8.7,7.1-15.8,15.8-15.8h15.8c8.7,0,15.8,7.1,15.8,15.8v15.8c0,8.7-7.1,15.8-15.8,15.8h-15.8
		c-8.7,0-15.8-7.1-15.8-15.8V356.4z M789.6,483.2c0-8.7,7.1-15.8,15.8-15.8h15.8c8.7,0,15.8,7.1,15.8,15.8V499
		c0,8.7-7.1,15.8-15.8,15.8h-15.8c-8.7,0-15.8-7.1-15.8-15.8V483.2z M789.6,546.5c0-8.7,7.1-15.8,15.8-15.8h15.8
		c8.7,0,15.8,7.1,15.8,15.8v15.8c0,8.7-7.1,15.8-15.8,15.8h-15.8c-8.7,0-15.8-7.1-15.8-15.8V546.5z M813.4,293
		c4.8,0,7.9,3.1,7.9,7.9c0,4.8-3.1,7.9-7.9,7.9c-4.8,0-7.9-3.1-7.9-7.9C805.5,296.3,808.8,293,813.4,293z M805.5,372.2h15.8v-15.8
		h-15.8V372.2z M805.5,499h15.8v-15.8h-15.8V499z M805.5,562.4h15.8v-15.8h-15.8V562.4z M845.1,293c4.8,0,7.9,3.1,7.9,7.9
		c0,4.8-3.1,7.9-7.9,7.9c-4.8,0-7.9-3.1-7.9-7.9C837.2,296.3,840.3,293,845.1,293z M853,356.4c0-8.7,7.1-15.8,15.8-15.8h15.8
		c8.7,0,15.8,7.1,15.8,15.8v15.8c0,8.7-7.1,15.8-15.8,15.8h-15.8c-8.7,0-15.8-7.1-15.8-15.8V356.4z M853,546.5
		c0-8.7,7.1-15.8,15.8-15.8h15.8c8.7,0,15.8,7.1,15.8,15.8v15.8c0,8.7-7.1,15.8-15.8,15.8h-15.8c-8.7,0-15.8-7.1-15.8-15.8V546.5z
		 M868.9,372.2h15.8v-15.8h-15.8V372.2z M868.9,562.4h15.8v-15.8h-15.8V562.4z"/>
</g>
</svg>
